<svg width="265" height="265" viewBox="0 0 265 265" fill="none" xmlns="http://www.w3.org/2000/svg">
<path d="M132.083 105.667C146.096 105.667 159.534 100.1 169.442 90.1921C179.35 80.284 184.917 66.8456 184.917 52.8333C184.917 38.8211 179.35 25.3827 169.442 15.4745C159.534 5.56635 146.096 0 132.083 0C118.071 0 104.633 5.56635 94.7245 15.4745C84.8163 25.3827 79.25 38.8211 79.25 52.8333C79.25 66.8456 84.8163 80.284 94.7245 90.1921C104.633 100.1 118.071 105.667 132.083 105.667ZM46.2292 145.292C54.9868 145.292 63.3858 141.813 69.5784 135.62C75.771 129.427 79.25 121.028 79.25 112.271C79.25 103.513 75.771 95.1142 69.5784 88.9216C63.3858 82.729 54.9868 79.25 46.2292 79.25C37.4715 79.25 29.0725 82.729 22.8799 88.9216C16.6873 95.1142 13.2083 103.513 13.2083 112.271C13.2083 121.028 16.6873 129.427 22.8799 135.62C29.0725 141.813 37.4715 145.292 46.2292 145.292ZM250.958 112.271C250.958 121.028 247.479 129.427 241.287 135.62C235.094 141.813 226.695 145.292 217.938 145.292C209.18 145.292 200.781 141.813 194.588 135.62C188.396 129.427 184.917 121.028 184.917 112.271C184.917 103.513 188.396 95.1142 194.588 88.9216C200.781 82.729 209.18 79.25 217.938 79.25C226.695 79.25 235.094 82.729 241.287 88.9216C247.479 95.1142 250.958 103.513 250.958 112.271ZM132.083 118.875C149.599 118.875 166.397 125.833 178.782 138.218C191.167 150.603 198.125 167.401 198.125 184.917V264.167H66.0417V184.917C66.0417 167.401 72.9996 150.603 85.3848 138.218C97.77 125.833 114.568 118.875 132.083 118.875ZM39.625 184.917C39.625 175.763 40.9458 166.927 43.429 158.579L41.1836 158.764C29.8624 160.007 19.3986 165.386 11.7985 173.868C4.19842 182.351 -0.00295548 193.34 1.55987e-06 204.729V264.167H39.625V184.917ZM264.167 264.167V204.729C264.168 192.952 259.675 181.619 251.604 173.042C243.533 164.466 232.493 159.293 220.738 158.579C223.208 166.927 224.542 175.763 224.542 184.917V264.167H264.167Z" fill="#E3E3E3"/>
</svg>
